<?xml version="1.0" standalone="no"?>
<svg xmlns:xlink="http://www.w3.org/1999/xlink" id="wave" style="transform:rotate(180deg); transition: 0.3s" viewBox="0 0 1440 380" version="1.1" xmlns="http://www.w3.org/2000/svg"><defs><linearGradient id="sw-gradient-0" x1="0" x2="0" y1="1" y2="0"><stop stop-color="rgba(0, 53, 148, 1)" offset="0%"/><stop stop-color="rgba(227, 218, 201, 1)" offset="100%"/></linearGradient></defs><path style="transform:translate(0, 0px); opacity:1" fill="url(#sw-gradient-0)" d="M0,190L24,183.7C48,177,96,165,144,190C192,215,240,279,288,253.3C336,228,384,114,432,95C480,76,528,152,576,152C624,152,672,76,720,57C768,38,816,76,864,126.7C912,177,960,241,1008,247C1056,253,1104,203,1152,152C1200,101,1248,51,1296,76C1344,101,1392,203,1440,228C1488,253,1536,203,1584,183.7C1632,165,1680,177,1728,152C1776,127,1824,63,1872,31.7C1920,0,1968,0,2016,50.7C2064,101,2112,203,2160,247C2208,291,2256,279,2304,234.3C2352,190,2400,114,2448,107.7C2496,101,2544,165,2592,183.7C2640,203,2688,177,2736,164.7C2784,152,2832,152,2880,164.7C2928,177,2976,203,3024,234.3C3072,266,3120,304,3168,272.3C3216,241,3264,139,3312,133C3360,127,3408,215,3432,259.7L3456,304L3456,380L3432,380C3408,380,3360,380,3312,380C3264,380,3216,380,3168,380C3120,380,3072,380,3024,380C2976,380,2928,380,2880,380C2832,380,2784,380,2736,380C2688,380,2640,380,2592,380C2544,380,2496,380,2448,380C2400,380,2352,380,2304,380C2256,380,2208,380,2160,380C2112,380,2064,380,2016,380C1968,380,1920,380,1872,380C1824,380,1776,380,1728,380C1680,380,1632,380,1584,380C1536,380,1488,380,1440,380C1392,380,1344,380,1296,380C1248,380,1200,380,1152,380C1104,380,1056,380,1008,380C960,380,912,380,864,380C816,380,768,380,720,380C672,380,624,380,576,380C528,380,480,380,432,380C384,380,336,380,288,380C240,380,192,380,144,380C96,380,48,380,24,380L0,380Z"/></svg>